<?xml version="1.0" encoding="utf-8"?>
<!-- Generator: Adobe Illustrator 16.0.0, SVG Export Plug-In . SVG Version: 6.00 Build 0)  -->
<!DOCTYPE svg PUBLIC "-//W3C//DTD SVG 1.1//EN" "http://www.w3.org/Graphics/SVG/1.1/DTD/svg11.dtd">
<svg version="1.1" id="Layer_1" xmlns="http://www.w3.org/2000/svg" xmlns:xlink="http://www.w3.org/1999/xlink" x="0px" y="0px"
	 width="612px" height="792px" viewBox="0 0 612 792" enable-background="new 0 0 612 792" xml:space="preserve">
<g>
	<g>
		<path fill-rule="evenodd" clip-rule="evenodd" fill="#FCA3B5" d="M285.069,2.58c21.926,0,43.855,0,65.78,0
			c17.641,2.723,35.203,5.744,52.271,12.665c25.835,10.48,49.492,26.193,70.822,47.759c2.057,2.081,4.291,4.081,5.185,7.563
			c-0.948,9.563-4.815,17.766-7.44,26.534c-11.897,39.735-22.317,79.979-27.271,122.319c-3.668,31.401,2.358,42.244,26.967,47.424
			c23.342,4.913,46.797,7.203,70.437,4.859c2.658-0.264,5.325-0.632,7.694,1.562c2.405,2.708,3.123,6.392,3.465,10.244
			c2.351,26.544,5.509,53.02,4.241,79.883c-0.536,13.672-0.171,27.357-0.237,41.038c-0.202,44.008-1.709,87.852-9.58,130.923
			c-0.686,3.741-0.316,7.682-0.811,11.471c-2.098,9.87-1.551,20.351-4.076,30.182c-1.241,4.847,0.788,7.188,4.446,7.593
			c3.282,0.365,6.572,0.622,9.807,1.572c24.98,7.324,41.269,27.061,49.571,58.161c1.505,5.646,3.07,11.277,4.079,17.117
			c0.394,3.854,1.528,7.553,1.519,11.485c0.226,6.238-0.574,12.662,2.056,18.451c0,0.864,0,1.721,0,2.585
			c-0.94,1.441-1.45,3.361-2.85,4.311c-1.392,0.837-2.864,1.228-4.386,1.378c-5.207,0.492-10.112-1.322-14.998-3.305
			c-5.404-2.255-10.854-4.162-16.614-3.976c-7.143,0.07-14.275,0.105-21.257-2.24c-9.382,2.524-18.975,1.653-28.412,2.897
			c-14.385,1.89-28.646,4.953-42.3,11.685c-4.502,2.22-9.076,5.377-14.248,3.225c-3.63-12.903-1.137-25.817,0.513-38.53
			c1.098-8.457,0.932-16.054-2.907-23.163c-0.452-1.099-0.646-2.585-1.391-3.306c-2.151-2.056-1.918,0.585-1.985,2.014
			c-0.292,6.225,2.963,11.206,3.725,17.116c1.608,15.64-0.223,31.245-0.013,46.862c0.706,7.666,0.447,15.355,0.31,23.042
			c-0.106,3.106-0.498,6.097-2.063,8.608c-3.129,2.826-6.415,1.592-9.499,0.184c-24.165-11.055-49.14-16.579-74.651-18.456
			c-17.849-1.139-35.329,2.391-52.747,6.837c-3.806,0.973-7.563,3.411-11.59,1.242c-2.56-4.217-1.688-8.916-1.112-13.569
			c5.112-41.533,11.769-82.624,21.214-122.918c3.144-13.421,2.718-13.55-8.489-15.162c-12.208-1.756-24.37-3.59-36.63-1.464
			c-13.617,2.356-14.132,3.057-11.078,20.13c6.813,38.017,12.453,76.336,17.641,114.773c0.789,5.848,2.361,11.766-0.414,17.505
			c-6.849,4.481-13.324-1.714-20.045-1.137c-15.13-3.968-30.472-1.477-45.69-2.504c-3.979,0.056-7.959,0.292-11.932-0.076
			c-12.401,0.189-24.476,3.88-36.71,5.83c-0.979,0.477-1.998,0.812-3.024,1.048c-3.9,0.779-7.823,1.386-11.714,2.349
			c-7.881,1.955-14.821,4.902-15.496,17.552c-0.105,1.963-1.234,3.983-3.417,3.242c-6.326-11.757-1.875-24.972-3.039-37.404
			c-0.122-22.521,0.017-45.063-0.126-70.69c-5.261,9.78-3.359,17.154-2.267,24.493c1.622,10.863,4.222,21.768-0.421,32.527
			c-4.634,3.583-9.099,0.834-13.451-0.884c-20.147-7.938-40.919-10.15-61.777-11.607c-3.638-0.257-7.319-0.186-10.834,1.484
			c-16.358,0.849-32.439,4.17-48.348,9.08c-2.557,0.785-5.188,1.128-7.475-1.285c0-12.043,0-24.077,0-36.12
			c3.276-8.765,4.041-18.601,7.345-27.438c6.922-18.494,16.399-33.713,30.681-43.385c8.803-4.855,18.048-6.916,27.549-7.503
			c3.156-0.191,6.625,1.063,9.09-2.824c1.553-3.842,0.568-7.646-0.048-11.38c-7.961-48.432-12.037-97.35-14.475-146.814
			c-2.401-48.742,0.238-96.947,2.714-145.328c0.176-3.449,0.474-6.86,1.997-9.853c2.217-3.082,5.197-3.681,8.18-3.767
			c19.512-0.559,38.925-1.345,57.843,7.634c17.252,8.19,21.73,4.124,24.867-19.306c2.151-16.079,3.166-32.238,2.846-48.576
			c-0.125-6.306-0.868-12.942,2.36-18.61c4.589-0.876,3.367,3.721,3.415,6.545c0.163,9.458,0.107,18.92,0.259,28.396
			c-1.073-17.648,1.962-35.999-4.364-52.843c-1.593-2.257-2.785-4.88-2.973-7.906c-1.834-29.328-9.75-56.274-19.161-82.649
			c-0.828-2.32-1.448-4.756-1.206-7.399c11.352-16.282,26.313-26.04,40.841-36.069c29.032-20.044,59.975-32.122,93.213-32.603
			C276.984,3.235,281.188,5.376,285.069,2.58z"/>
		<path fill-rule="evenodd" clip-rule="evenodd" fill="#FDFDFD" d="M67.579,271.081c-1.102,24.674-2.562,49.336-3.199,74.026
			c-0.571,22.233-1.712,44.71,0.135,66.692c1.677,20.001,0.836,40.01,2.854,60.019c3.542,35.089,6.656,70.196,12.958,104.686
			c0.871,4.77,3.224,9.632-0.678,14.005c-11.646-2.247-23.2-1.476-34.727,1.522c-2.897,0.748-4.792,2.308-5.128,6.28
			c-17.541,12.984-27.221,33.465-33.105,57.683c-0.872,3.585,0.326,9.274-4.695,9.594c0-217.283,0.043-434.571-0.161-651.861
			C1.826,4.973,2.694,2.237,10.303,2.277c87.6,0.474,175.202,0.303,262.804,0.303c0.685,0.604,0.883,1.131,0.599,1.592
			c-0.263,0.421-0.526,0.632-0.796,0.632c-46.471,6.152-88.896,26.007-126.365,62.588c-2.081,2.03-3.723,5.089-6.828,4.449
			c-6.404-3.383-8.2-11.987-12.052-18.192c-10.93-17.583-15.999-18.61-29.41-3.96c-14.132,15.438-25.028,34.283-34.022,55.11
			c-16.743,38.768-27.062,80.211-31.252,124.239c-0.875,9.181,0.77,18.044,3.233,26.499c2.754,9.455,9.181,11.388,16.194,12.022
			C57.53,268.027,63.148,265.493,67.579,271.081z"/>
		<path fill-rule="evenodd" clip-rule="evenodd" fill="#FDFDFD" d="M478.15,69.123c-9.79-4.487-16.724-14.64-25.4-21.437
			c-30.187-23.634-63.183-35.825-97.681-42.542c-1.659-0.322-3.286-0.388-4.22-2.564c85.061,0,170.116,0.133,255.169-0.252
			c6.83-0.033,8.174,1.738,8.164,10.571c-0.243,219.284-0.189,438.567-0.189,657.85c-4.588,0.735-3.048-6.167-5.774-7.744
			c-4.439-19.261-9.129-38.324-20.97-52.675c-11.804-14.305-25.664-22.213-41.899-22.034c-6.586,0.078-8.901-3.227-5.934-10.664
			c3.59-9.002,1.058-19.472,4.776-28.257c4.356-30.325,7.997-60.62,9.584-91.586c1.396-27.289,0.603-54.447,1.375-81.639
			c0.118-4.155,0.894-8.543-0.898-12.534c0.668-30.232-2.091-60.091-5.765-89.857c3.056-4.767,7.562-4.863,11.704-6.158
			c4.376-0.025,8.412-1.895,12.462-3.756c7.407-3.404,10.502-9.765,10.899-20.291c1.371-36.78-6.427-70.915-16.582-104.505
			c-8.631-28.887-19.924-55.559-37.331-77.457c-6.95-8.745-14.904-15.371-23.153-21.606c-0.46-0.574-0.675-1.345-1.014-1.975
			c-0.604-1.154,0.653-2.968-0.843-3.729c0.363,1.257,0.029,2.257-0.71,3.149c-8.87,1.824-14.132,9.248-18.318,18.829
			C483.579,60.888,482.426,66.591,478.15,69.123z"/>
		<path fill-rule="evenodd" clip-rule="evenodd" fill="#FDFDFD" d="M463.991,740.696c0.216-2.686,0.43-5.369,0.641-8.052
			c4.324-12.607,6.1,1.461,9.255,1.429c19.714,8.049,40.018,10.062,60.505,10.326c4.284,0.051,8.569-0.179,12.85,0.121
			c4.296,0,8.545-0.534,12.733-1.826c13.691-0.633,26.941-4.361,39.938-9.772c3.933-0.936,7.391-3.948,11.434-4.412
			c1.011,0.164,1.887,0.708,2.647,1.577c0,18.489-0.373,36.992,0.178,55.451c0.231,7.744-1.207,9.286-7.154,9.259
			c-68.109-0.338-136.224-0.217-204.335-0.217c-0.672-1.27-0.605-2.477,0.193-3.61c3.813-4.006,8.452-4.326,13.057-4.991
			c12.527-1.812,24.573-6.152,36.437-11.541c4.961-2.255,8.639-6.062,10.656-12.385c1.486-2.384,3.141-3.812,5.518-1.308
			c-1.208-3.311-4.893-2.812-5.637-6.55C461.708,749.477,461.526,744.906,463.991,740.696z"/>
		<path fill-rule="evenodd" clip-rule="evenodd" fill="#FDFDFD" d="M149.569,717.117c1.151,12.837-1.777,25.927,1.457,38.625
			c5.351,26.077,24.119,23.613,38.567,30.045c5.562,2.477,11.87,1.585,17.344,5.147c0.919,1.075,1.045,2.298,0.386,3.646
			c-65.856,0-131.715-0.199-197.566,0.287c-7.179,0.05-8.238-2.456-7.937-10.809c0.59-16.239,0.173-32.542,0.173-48.816
			c3.315-2.106,6.376-0.242,9.484,1c17.62,7.066,35.624,10.992,54.105,10.884c19.208,1.123,37.971-3.261,56.827-7.181
			c11.532-2.398,19.833-8.238,21.883-24.276C146.697,712.228,148.108,714.827,149.569,717.117z"/>
		<path fill-rule="evenodd" clip-rule="evenodd" fill="#9E907B" d="M65.782,750.303c-22.023,0.373-43.394-3.883-63.789-15.061
			c0-11.179,0-22.357,0-33.535c18.184-6.066,36.457-11.372,55.407-10.937c0.957,0.678,1.636,1.678,2.041,2.985
			c1.029,12.635-1.588,25.103-1.009,37.795c0.317,6.956,1.473,12.378,6.773,15.202C66.131,747.74,66.319,748.924,65.782,750.303z"/>
		<path fill-rule="evenodd" clip-rule="evenodd" fill="#FDFCFC" d="M362.814,794.58c-34.555,0-69.106,0-103.661,0
			c-0.75-1.063-1.01-2.306-0.776-3.711c4.453-7.53,11.733-4.076,17.31-7.417c3.276-1.963,6.977-2.598,10.466-3.926
			c8.022-3.056,15.419-6.653,12.999-20.799c-0.423-2.472,0.534-5.047,2.234-6.806c4.369-2.587,8.522-2.753,12.282,1.721
			c1.358,2.558,1.834,5.525,1.59,8.496c-0.639,7.896,2.852,11.364,7.958,13.876c12.043,5.926,24.816,7.822,37.233,11.735
			C362.339,789.385,363.703,791.34,362.814,794.58z"/>
		<path fill-rule="evenodd" clip-rule="evenodd" fill="#F7F7F4" d="M362.814,794.58c-0.673-1.52-1.346-3.039-2.018-4.561
			c0.672-1.239,1.582-1.99,2.739-2.247c5.577-0.008,11.137,0.947,16.73,0.539c7.541,0.738,15.571-3.174,22.432,3.95
			c-0.004,0.771-0.01,1.542-0.017,2.318C389.396,794.58,376.102,794.58,362.814,794.58z"/>
		<path fill-rule="evenodd" clip-rule="evenodd" fill="#E0D6CF" d="M613.993,730.087c-0.706-0.042-1.405-0.078-2.11-0.113
			c-4.237-11.029-3.901-22.1-0.177-33.199c0.761-0.936,1.522-1.87,2.287-2.805C613.993,706.005,613.993,718.047,613.993,730.087z"/>
		<path fill-rule="evenodd" clip-rule="evenodd" fill="#FAEFEE" d="M613.993,691.385c-4.786-4.746-3.782-11.599-3.915-18.038
			c3.854-1.534,2.118,4.054,3.915,5.137C613.993,682.792,613.993,687.087,613.993,691.385z"/>
		<path fill-rule="evenodd" clip-rule="evenodd" fill="#FAF8F8" d="M613.993,678.483c-1.308-1.71-2.608-3.424-3.915-5.137
			c-0.623-3.446-1.241-6.896-1.859-10.342c4.219-0.287,3.156,6.031,5.774,7.744C613.993,673.329,613.993,675.909,613.993,678.483z"
			/>
		<path fill-rule="evenodd" clip-rule="evenodd" fill="#E8E0D9" d="M207.323,794.58c-0.019-0.771-0.047-1.534-0.077-2.306
			c3.968-4.968,8.363-4.169,12.896-1.604c1.009,0.992,1.385,2.298,1.135,3.91C216.625,794.58,211.973,794.58,207.323,794.58z"/>
		<path fill-rule="evenodd" clip-rule="evenodd" fill="#CAC5C3" d="M221.277,794.58c-0.018-0.635-0.023-1.277-0.018-1.92
			c0.268-0.549,0.534-1.106,0.797-1.67c3.257-2.613,6.784-2.24,10.342-1.585c1.006,0.302,1.914,0.871,2.733,1.686
			c0.78,1.128,0.813,2.29,0.1,3.489C230.579,794.58,225.929,794.58,221.277,794.58z"/>
		<path fill-rule="evenodd" clip-rule="evenodd" fill="#E8E2DC" d="M235.231,794.58c0.014-0.733,0.057-1.469,0.132-2.197
			c4.01-5.132,8.495-4.277,13.11-1.729c1.102,1.043,1.337,2.356,0.711,3.926C244.533,794.58,239.884,794.58,235.231,794.58z"/>
		<path fill-rule="evenodd" clip-rule="evenodd" fill="#FAD6D8" d="M272.91,4.804c0.085-0.738,0.149-1.481,0.198-2.224
			c3.986,0,7.974,0,11.962,0C281.44,7.205,277.025,4.625,272.91,4.804z"/>
		<path fill-rule="evenodd" clip-rule="evenodd" fill="#FAF9F5" d="M249.186,794.58c-0.006-0.784,0.012-1.569,0.05-2.354
			c3.047-3.915,6.317-3.807,9.744-0.914c0.058,1.091,0.117,2.177,0.174,3.268C255.83,794.58,252.508,794.58,249.186,794.58z"/>
		<path fill-rule="evenodd" clip-rule="evenodd" fill="#FC7598" d="M506.365,37.646c11.907,5.389,21.361,15.441,29.582,27.327
			c14.478,20.956,25.515,44.666,32.311,71.507c2.923,16.134,7.562,31.63,11.582,47.272c1.814,7.064-0.925,13.645,2.538,21.356
			c3.931,8.757,2.731,21.48,2.698,32.605c-0.063,20.457-0.68,21.372-15.611,28.328c-3.077,1.433-6.393,2.194-9.239,4.461
			c-3.909,1.083-7.828,2.169-11.737,3.255c-22.77,4.57-45.479,2.834-68.087-1.693c-6.162-1.232-12.399-1.416-18.495-4.144
			c-19.846-8.873-24.38-17.081-21.164-44.023c6.188-51.858,19.102-101.154,35.059-149.213c0.641-1.935,1.562-3.711,2.35-5.563
			c2.895-7.066,5.788-14.133,8.685-21.198c3.74-9.13,9.248-13.952,17.521-12.007C505.04,36.462,505.714,37.04,506.365,37.646z"/>
		<path fill-rule="evenodd" clip-rule="evenodd" fill="#FC7598" d="M67.579,271.081c-2.984-0.01-5.976-0.131-8.956-0.015
			c-22.64,0.922-29.766-6.744-27.762-39.377c4.057-65.986,22.714-125.531,57.695-175.225c5.367-7.624,11.503-14.048,18.608-19.051
			c5.56-3.92,9.987-2.789,14.373,2.469c7.646,9.16,13.208,20.271,18.179,31.96c10.979,28.577,20.798,57.615,21.903,90.23
			c0.066,1.905,1.191,3.751,1.826,5.625c2.931,6.87,2.934,13.761,0.099,20.679c-0.067,25.247,0.411,50.48-3.937,75.429
			c-3.051,17.479-8.396,23.596-21.499,17.094C115.055,269.458,91.389,270.603,67.579,271.081z"/>
		<path fill-rule="evenodd" clip-rule="evenodd" fill="#FB7094" d="M243.441,126.728c0.514-2.039,1.329-4.039,1.492-6.122
			c2.99-38.282,19.151-55.068,46.545-60.477c20.078-3.965,40.608-2.61,57.393,16.116c12.366,13.796,15.76,32.979,17.931,52.728
			c1.087,20.371-7.004,34.502-19.452,44.524c-26.478,21.313-53.907,21.329-81.464,3.507c-9.472-6.125-16.512-15.703-20.178-28.912
			C244.497,141.058,244.682,133.765,243.441,126.728z"/>
		<path fill-rule="evenodd" clip-rule="evenodd" fill="#FCD0DB" d="M313.255,756.235c-3.447-5.049-8.031-2.191-12.102-2.92
			c-1.484-0.241-2.53-1.3-3.282-2.912c-1.682-4.94-0.811-10.357-1.742-15.446c-0.06-0.572-0.097-1.148-0.151-1.729
			c0-1.206,0.327-2.242,0.97-3.118c-2.192-18.51-3.897-37.148-6.686-55.514c-4.446-29.272-9.529-58.384-14.531-87.515
			c-1.371-7.979-0.003-10.514,6.878-12.241c18.26-4.599,36.201-0.021,54.265,0.42c6.927,0.172,6.348,5.034,4.743,11.222
			c-11.61,44.617-17.732,90.891-24.445,136.974c-0.31,2.079-0.133,4.275-0.183,6.417
			C319.359,739.518,320.022,748.761,313.255,756.235z"/>
		<path fill-rule="evenodd" clip-rule="evenodd" fill="#660000" d="M255.219,304.644c-6.494-7.427-9.529-17.494-11.59-27.801
			c-4.551-22.755,1.975-36.53,19.5-41.692c25.751-7.578,51.781-7.75,77.723-2.394c22.305,4.605,30.021,23.289,22.912,52.997
			c-0.871,3.648-1.986,7.2-2.988,10.798c-0.818,3.003-1.358,6.23-3.786,7.953l-0.292-0.005c-4.816,3.252-6.778-2.149-8.565-5.583
			c-17.454-33.565-66.129-37.266-85.986-0.342C260.555,301.53,258.908,305.281,255.219,304.644z"/>
		<path fill-rule="evenodd" clip-rule="evenodd" fill="#9E907B" d="M402.698,792.262c-8.047-0.292-16.098-0.587-24.152-0.887
			c-4.699-8.516-2.609-18.27-2.626-27.466c-0.021-13.7,1.634-27.305,2.891-40.924c0.448-1.497,1.191-2.706,2.218-3.626
			c28.776-0.193,56.146,8.788,82.97,21.337c0.126,5.089,0.258,10.171,0.385,15.26c1.279,1.657,1.279,3.355,0.089,5.084
			c0.524,8.565-2.881,12.74-8.893,15.788C438.52,785.487,420.499,788.136,402.698,792.262z"/>
		<path fill-rule="evenodd" clip-rule="evenodd" fill="#FC7575" d="M255.219,304.644c21.651-46.381,66.161-42.667,87.938-18.207
			c4.959,5.563,6.972,14.665,13.548,18.061c-18.959,27.408-42.705,32.165-69.136,24.705
			C274.671,325.559,263.142,319.145,255.219,304.644z"/>
		<path fill-rule="evenodd" clip-rule="evenodd" fill="#9E907B" d="M299.347,750.496c0.6,0.942,1.205,1.88,1.807,2.819
			c0.719,24.385,0.718,24.521-18.704,31.008c-7.769,2.598-15.644,4.677-23.47,6.997c-3.25,0.299-6.495,0.6-9.744,0.906
			c-4.624,0.056-9.25,0.106-13.875,0.156c-0.753-0.236-1.509-0.479-2.264-0.715c-3.01-22.849-7.783-45.605-2.113-68.904
			c16.101-0.628,32.221-2.006,48.167,2.464c5.312,5.261,12.83,1.477,17.996,7.352l-0.045-0.028
			C299.328,738.225,295.839,745.093,299.347,750.496z"/>
		<path fill-rule="evenodd" clip-rule="evenodd" fill="#9E8F7B" d="M548.39,747.619c-24.696,2.87-48.888-2.569-73.123-7.358
			c-2.544-0.502-3.971-2.679-5.313-5.132c-0.17-8.38-4.776-15.819-3.108-24.592c0.341-1.406,0.991-2.499,1.951-3.282
			c27.259-15.228,56.18-18.845,85.39-20.395c0.548,1.355,0.569,2.719,0.079,4.111c-2.256,14.726-0.739,29.895-3.107,44.636
			C550.496,739.746,550.976,744.251,548.39,747.619z"/>
		<path fill-rule="evenodd" clip-rule="evenodd" fill="#9E8F7B" d="M221.259,792.66c-4.669-0.129-9.341-0.257-14.013-0.386
			c-14.049-0.562-27.29-6.074-40.735-10.629c-10.695-3.625-17.913-9.634-15.486-25.896c0.662-18.636,0.643-18.751,18.539-24.226
			c3.759-1.149,7.732-1.121,11.608-1.643c2.644,2.842,5.744,0.793,6.732,1.156c-0.999-0.105-4.03,1.405-6.685-1.142
			c12.482-4.96,25.29-6.98,38.307-7.063c3.235,22.717,7.902,45.365,1.81,68.493C221.4,791.783,221.372,792.227,221.259,792.66z"/>
		<path fill-rule="evenodd" clip-rule="evenodd" fill="#9E907B" d="M65.782,750.303c-0.009-0.748-0.02-1.504-0.033-2.255
			c-4.747-13.925-3.377-29.003-4.844-43.55c-0.46-4.547,0.458-9.457-2.905-12.855c0,0-0.596-0.872-0.6-0.872
			c16.396-4.918,32.605,0.158,48.698,2.585c12.582,1.899,24.833,7.444,37.233,11.364c4.166,2.006,4.507,5.553,2.442,10.085
			c-1.943,24.906,0.785,21.543-29.053,30.252C100.112,749.912,82.936,751.36,65.782,750.303z"/>
		<path fill-rule="evenodd" clip-rule="evenodd" fill="#9E8F7B" d="M313.255,756.235c1.247-8.787,2.488-17.567,3.734-26.354
			c20.846-8.629,42.119-12.834,64.032-10.521c-0.242,0.351-0.495,0.698-0.755,1.041c-6.122,4.134-8.504,10.715-8.896,19.588
			c-0.568,13.093-3.525,25.841-3.999,39.01c-0.155,4.315-0.938,8.479-4.552,10.402c-0.672,0.206-1.351,0.413-2.022,0.619
			c-11.87-1.3-23.466-4.403-34.806-9.044C311.919,775.219,311.942,775.131,313.255,756.235z"/>
		<path fill-rule="evenodd" clip-rule="evenodd" fill="#D64C6D" d="M247.217,147.034c8.423,22.339,23.563,32.575,41.344,36.888
			c24.561,5.953,47.116,0.496,66.044-22.399c7.354-8.896,9.323-20.958,12.196-32.55c7.298,31.431-5.515,64.397-29.377,74.063
			c-21.798,8.835-43.743,8.201-65.053-2.547c-18.514-9.334-27.309-28.313-28.925-53.397
			C244.688,145.517,245.945,145.524,247.217,147.034z"/>
		<path fill-rule="evenodd" clip-rule="evenodd" fill="#9E907B" d="M554.186,688.68c0-0.607,0-1.22,0-1.827
			c7.276,0.741,14.558,1.477,21.834,2.212c-1.062,8.445-7.487,3.092-10.277,6.747c5.482-0.292,10.921,1.091,16.167-1.4
			c3.337-2.228,6.874,0.408,10.259-0.716c5.279,1.016,10.551,2.03,15.829,3.046c4.757,17.414,2.862,29.437-6.015,38.236
			c-13.486,6.789-27.218,11.941-41.939,10.399c-2.4-1.219-4.011-3.738-4.025-6.787C555.913,721.914,552.603,705.448,554.186,688.68z
			"/>
		<path fill-rule="evenodd" clip-rule="evenodd" fill="#030202" d="M408.866,127.451c11.38-0.245,19.687,8.664,19.67,21.099
			c-0.012,11.516-8.633,21.508-18.578,21.545c-9.963,0.035-18.791-9.546-19.311-20.938
			C390.146,137.954,398.779,127.67,408.866,127.451z"/>
		<path fill-rule="evenodd" clip-rule="evenodd" fill="#0C0809" d="M199.913,170.519c-11.238,0.078-18.88-8.971-18.688-22.12
			c0.171-11.436,8.015-20.601,17.775-20.754c10.772-0.171,19.697,9.576,19.725,21.53
			C218.746,160.558,210.023,170.456,199.913,170.519z"/>
		<path fill-rule="evenodd" clip-rule="evenodd" fill="#595147" d="M221.336,791.325c0.886-22.898-3.522-45.563-1.81-68.493
			c3.82-0.025,7.641-0.046,11.457-0.068c-1.103,23.064,4.162,45.802,2.113,68.904C229.177,791.554,225.256,791.44,221.336,791.325z"
			/>
		<path fill-rule="evenodd" clip-rule="evenodd" fill="#FBCED9" d="M145.773,714.805c-0.814-3.36-1.628-6.724-2.442-10.085
			c0.813-12.42,0.221-24.649-2.777-36.591c-2.774-11.058-1.029-20.137,9.015-27.695c0,26.438,0,51.566,0,76.684
			C148.304,716.347,147.038,715.576,145.773,714.805z"/>
		<path fill-rule="evenodd" clip-rule="evenodd" fill="#FCCAD6" d="M468.796,707.255c-0.033,0.806-0.183,1.569-0.446,2.297
			c-1.225,1.421-2.465,1.427-3.712,0.043c-0.078-17.252-0.155-34.507-0.232-51.76c-2.741-13.562-2.664-13.854,4.031-15.353
			c10.537,18.295-0.325,37.366,1.143,56.005C469.8,701.35,469.078,704.327,468.796,707.255z"/>
		<path fill-rule="evenodd" clip-rule="evenodd" fill="#FBB6C3" d="M554.253,363.616c2.784,3.479,1.852,8.007,1.914,12.156
			c0.761,53.015-0.655,105.865-8.108,158.167c-0.752,5.268-0.801,11.049-3.866,15.436c-0.823-18.197,4.715-35.138,6.143-52.954
			C553.873,452.236,554.654,407.972,554.253,363.616z"/>
		<path fill-rule="evenodd" clip-rule="evenodd" fill="#F8FAF9" d="M39.794,598.311c-5.428-5.746-0.662-7.979,2.405-8.78
			c12.482-3.27,25.027-3.161,37.45,0.978C66.039,590.324,52.561,591.274,39.794,598.311z"/>
		<path fill-rule="evenodd" clip-rule="evenodd" fill="#9E907B" d="M592.168,693.695c-1.726,5.535-5.813-0.134-8.082,2.852
			c-7.969,2.057-15.939,2.057-23.915,0.006c-2.791-4.583,0.028-4.653,2.438-5.145c4.463-0.907,9.327,2.104,13.415-2.344
			C581.771,688.48,587.128,690.158,592.168,693.695z"/>
		<path fill-rule="evenodd" clip-rule="evenodd" fill="#A3927F" d="M601.982,734.978c8.254-11.101,5.75-25.037,6.015-38.236
			c1.236,0.005,2.473,0.018,3.709,0.033c0.055,11.064,0.115,22.135,0.177,33.199C608.787,732.329,605.781,734.97,601.982,734.978z"
			/>
		<path fill-rule="evenodd" clip-rule="evenodd" fill="#F9A5B5" d="M163.544,188.376c-0.033-6.896-0.067-13.788-0.099-20.679
			c2.744,0.434,3.982,2.484,3.979,6.021c-0.019,17.718-0.007,35.442-0.593,53.161C163.361,214.29,168.302,200.724,163.544,188.376z"
			/>
		<path fill-rule="evenodd" clip-rule="evenodd" fill="#FEA7B9" d="M186.669,176.943c4.524,1.26,12.181-2.381,11.754,6.235
			c-0.224,4.479-7.736,6.079-12.678,2.572C187.461,183.189,189.323,180.645,186.669,176.943z"/>
		<path fill-rule="evenodd" clip-rule="evenodd" fill="#F5EFED" d="M464.638,709.595c1.233-0.015,2.476-0.035,3.712-0.05
			c0.22,8.565,3.022,16.852,1.604,25.584c-1.776-0.829-1.417-9.312-5.321-2.484C464.632,724.963,464.638,717.281,464.638,709.595z"
			/>
		<path fill-rule="evenodd" clip-rule="evenodd" fill="#FDAABA" d="M468.437,642.482c-7.363,2.469-2.47,10.329-4.031,15.353
			c-2.935-3.311-4.109-7.623-3.855-12.491c0.171-3.177-1.38-7.83,1.593-9.137C465.547,634.71,466.947,639.277,468.437,642.482z"/>
		<path fill-rule="evenodd" clip-rule="evenodd" fill="#F6A4B4" d="M270.631,716.533c-9.111,0-18.227,0-27.342,0
			c0-0.429,0.004-0.856,0.004-1.282c9.112,0,18.224,0,27.334,0C270.631,715.677,270.631,716.104,270.631,716.533z"/>
		<path fill-rule="evenodd" clip-rule="evenodd" fill="#A3907D" d="M297.146,732.579c-5.483-4.567-13.53,1.37-17.998-7.352
			c6.05,0.912,12.121,1.713,17.799,4.883C297.077,730.926,297.146,731.745,297.146,732.579z"/>
		<path fill-rule="evenodd" clip-rule="evenodd" fill="#DE5476" d="M247.217,147.034c-1.258,0.02-2.516,0.038-3.771,0.058
			c-0.002-6.787-0.006-13.579-0.009-20.369C246.075,133.066,246.236,140.176,247.217,147.034z"/>
		<path fill-rule="evenodd" clip-rule="evenodd" fill="#F4A6B3" d="M78.115,535.939c0-4.813,0-9.624,0-14.441
			c0.331-0.007,0.661-0.02,0.993-0.03c0,4.891,0,9.78,0,14.671C78.776,536.073,78.446,536.01,78.115,535.939z"/>
		<path fill-rule="evenodd" clip-rule="evenodd" fill="#F3A5B2" d="M454.256,55.436c0.376,0.869,1.108,2.159,1.417,3.603
			c0.084,0.375-1.163,1.225-1.797,1.862c-0.657-1.348-1.578-2.592-1.894-4.059C451.657,55.36,452.612,54.896,454.256,55.436z"/>
		<path fill-rule="evenodd" clip-rule="evenodd" fill="#FAA3B4" d="M356.989,304.505c1.258-2.65,2.521-5.306,3.786-7.953
			C362.975,301.96,360.934,303.991,356.989,304.505z"/>
		<path fill-rule="evenodd" clip-rule="evenodd" fill="#FEA5BD" d="M266.106,15.159c-2.854,4.376-4.981,2.018-7.952,3.154
			C261.005,14.013,263.132,16.368,266.106,15.159z"/>
		<path fill-rule="evenodd" clip-rule="evenodd" fill="#F6FEFC" d="M52.257,391.765c0-11.796,0-23.591,0-35.387
			c0.331-0.008,0.662-0.015,0.993-0.018c0,11.624,0,23.253,0,34.877C52.919,391.412,52.588,391.586,52.257,391.765z"/>
		<path fill-rule="evenodd" clip-rule="evenodd" fill="#F7FEFC" d="M23.922,250.241c0.877-6.034,1.754-12.07,2.634-18.104
			C26.556,238.445,31.333,246.122,23.922,250.241L23.922,250.241z"/>
		<path fill-rule="evenodd" clip-rule="evenodd" fill="#F6FDFC" d="M23.922,250.241c-0.477,3.572,1.09,7.553-1.709,11.622
			C19.623,256.713,17.702,252.662,23.922,250.241L23.922,250.241z"/>
		<path fill-rule="evenodd" clip-rule="evenodd" fill="#FA799D" d="M560.226,270.504c3.686-4.676,7.469-7.857,13.194-8.505
			c7.904-0.899,10.001-9.561,10.673-18.679c1.038-14.126-3.827-27.627-2.819-41.979c-0.689,1.602-1.378,3.199-3.629,8.415
			c3.714-26.647-5.398-46.217-10.021-67.181c-0.397-1.804,0.396-4.049,0.635-6.094c12.681,35.848,20.009,73.194,17.975,112.884
			C585.594,261.875,575.702,269.343,560.226,270.504z"/>
		<path fill-rule="evenodd" clip-rule="evenodd" fill="#F3FDFC" d="M506.365,37.646c-0.668-0.574-1.342-1.151-2.01-1.729
			c-0.28-1.867-3.332-2.159-1.99-4.509c0.75-1.318,2.764-1.429,4.204-2.086C506.504,32.102,506.429,34.873,506.365,37.646z"/>
		<path fill-rule="evenodd" clip-rule="evenodd" fill="#F3FDFC" d="M586.714,175.412c0.265,0.922,1.003,2.411,1.029,3.92
			c0.042,1.849-1.096,3.426-2.454,2.142c-0.789-0.751-0.924-2.983-0.981-4.57C584.27,175.77,584.639,174.22,586.714,175.412z"/>
		<path fill-rule="evenodd" clip-rule="evenodd" fill="#F2FEFA" d="M599.729,618.705c0.597,1.654,1.408,3.099,1.612,4.683
			c0.202,1.585-0.905,2.341-1.705,1.091c-0.762-1.184-0.982-2.982-1.303-4.56C598.296,619.725,599.101,619.241,599.729,618.705z"/>
		<path fill-rule="evenodd" clip-rule="evenodd" fill="#F5FEFC" d="M551.174,536.995c-1.41-2.671-1.23-5.269-0.081-8.772
			C552.569,531.563,552.66,534.146,551.174,536.995z"/>
		<path fill-rule="evenodd" clip-rule="evenodd" fill="#5B5249" d="M554.186,688.68c3.232,10.621,3.618,21.8,3.996,33.016
			c0.263,7.929-1.149,16.108,1.861,23.682c-3.578,3.414-7.604,2.928-11.653,2.242c0.589-17.703,1.213-35.409,1.736-53.128
			C550.232,690.887,551.494,689.055,554.186,688.68z"/>
		<path fill-rule="evenodd" clip-rule="evenodd" fill="#F7D7E1" d="M464.472,761.04c-0.027-1.693-0.056-3.392-0.089-5.084
			c2.455,0.38,5.478-0.978,6.625,3.577C469.06,762.123,466.639,760.659,464.472,761.04z"/>
		<path fill-rule="evenodd" clip-rule="evenodd" fill="#5B5348" d="M58,691.643c4.291-0.756,5.989,1.906,5.788,7.23
			c-0.62,16.474,3.224,32.65,1.961,49.175c-7.364,1.471-10.527-1.55-10.227-12.199C55.941,721.051,56.221,706.297,58,691.643z"/>
		<path fill-rule="evenodd" clip-rule="evenodd" fill="#595147" d="M362.819,789.4c1.98-17.867,4.038-35.728,5.914-53.609
			c0.938-8.959,0.888-18.794,11.537-15.391c1.473,23.742-3.043,47.242-1.725,70.975C373.251,791.44,367.79,793.668,362.819,789.4z"
			/>
		<path fill-rule="evenodd" clip-rule="evenodd" fill="#F27B99" d="M532.851,84.756c-1.785-1.174-1.23-2.333-0.611-3.22
			c0.628-0.899,1.421-2.028,2.236-2.189c1.321-0.252,1.405,1.36,0.878,2.325C534.665,82.932,533.611,83.856,532.851,84.756z"/>
		<path fill-rule="evenodd" clip-rule="evenodd" fill="#FA799D" d="M579.25,227.721c-1.731-3.59-0.976-6.127-0.552-9.518
			C580.584,221.536,580.332,224.151,579.25,227.721z"/>
		<path fill-rule="evenodd" clip-rule="evenodd" fill="#F67798" d="M40.236,193.48c2.798,5.57,4.778,9.097,4.9,15.872
			C40.994,204.656,40.236,200.497,40.236,193.48z"/>
		<path fill-rule="evenodd" clip-rule="evenodd" fill="#F37797" d="M58.631,128.663c1.743,2.802,1.462,5.457,0.328,8.442
			C57.251,134.296,57.521,131.641,58.631,128.663z"/>
		<path fill-rule="evenodd" clip-rule="evenodd" fill="#501B25" d="M293.16,119.019c-1.091,9.072-2.76,17.185-10.866,17.384
			c-7.708,0.188-8.927-8.445-8.896-15.328c0.031-8.273,2.583-17.25,10.413-17.212C290.664,103.903,292.192,112,293.16,119.019z"/>
		<path fill-rule="evenodd" clip-rule="evenodd" fill="#4E1B24" d="M335.456,121.186c-0.144,7.9-1.224,15.499-8.775,15.128
			c-7.348-0.358-9.78-7.732-9.818-16.071c-0.038-8.271,1.881-15.98,9.72-15.529C334.391,105.162,335.313,113.211,335.456,121.186z"
			/>
		<path fill-rule="evenodd" clip-rule="evenodd" fill="#F36F92" d="M277.385,94.848c-0.998,1.174-1.814,2.816-2.915,3.248
			c-1.27,0.501-1.178-1.31-0.993-2.383c0.338-1.963,1.503-2.673,2.932-2.446C276.754,93.321,277.019,94.229,277.385,94.848z"/>
		<path fill-rule="evenodd" clip-rule="evenodd" fill="#A3907D" d="M299.347,750.496c-1.632-0.45-6.47,5.012-4.324-1.206
			c2.049-5.946-0.411-11.7,2.078-16.739C300.563,737.96,298.59,744.516,299.347,750.496z"/>
		<path fill-rule="evenodd" clip-rule="evenodd" fill="#A58C7C" d="M510.431,702.206c2.471,0,4.946,0,8.048,0
			C515.762,705.74,513.177,703.884,510.431,702.206z"/>
		<path fill-rule="evenodd" clip-rule="evenodd" fill="#979479" d="M181.22,729.896c3.262,0,6.524,0,9.788,0
			c-3.415,3.068-6.757,3.983-9.833-0.007C181.173,729.881,181.22,729.896,181.22,729.896z"/>
		<path fill-rule="evenodd" clip-rule="evenodd" fill="#989279" d="M81.728,696.547c10.012,1.185,20.388-2.7,30.988,3.111
			c-5.858,4.765-10.291-1.627-15.05-0.514c-5.312,1.982-10.621,2.006-15.929-0.015c-5.291-1.134-11.049,2.569-15.95-2.577
			C71.099,694.526,76.415,694.526,81.728,696.547z"/>
		<path fill-rule="evenodd" clip-rule="evenodd" fill="#A58D7B" d="M81.737,699.13c5.309,0.007,10.618,0.007,15.929,0.015
			C92.354,703.105,87.042,703.105,81.737,699.13z"/>
		<path fill-rule="evenodd" clip-rule="evenodd" fill="#A78D7B" d="M81.728,696.547c-5.313,0-10.629,0-15.941,0.006
			C71.099,692.569,76.415,692.564,81.728,696.547z"/>
		<path fill-rule="evenodd" clip-rule="evenodd" fill="#A38E7C" d="M560.171,696.553c7.976,0,15.946-0.006,23.915-0.006
			C576.117,700.664,568.146,700.659,560.171,696.553z"/>
		<path fill-rule="evenodd" clip-rule="evenodd" fill="#3E1B20" d="M278.907,126.74c1.097,0.887,2.067,1.272,2.507,2.116
			c0.668,1.298-0.126,2.311-1.093,2.268c-0.802-0.033-1.768-0.617-2.292-1.38C277.802,129.414,278.51,128.015,278.907,126.74z"/>
	</g>
</g>
</svg>
